<?xml version="1.0" standalone="no"?>
<!DOCTYPE svg PUBLIC "-//W3C//DTD SVG 20010904//EN"
 "http://www.w3.org/TR/2001/REC-SVG-20010904/DTD/svg10.dtd">
<svg version="1.0" xmlns="http://www.w3.org/2000/svg"
 width="1280.000000pt" height="1134.000000pt" viewBox="0 0 1280.000000 1134.000000"
 preserveAspectRatio="xMidYMid meet">

<g transform="translate(0.000000,1134.000000) scale(0.100000,-0.100000)"
fill="#000000" stroke="none">
<path d="M0 5670 l0 -5660 6395 0 6395 0 0 5660 0 5660 -6395 0 -6395 0 0
-5660z m12780 0 l0 -5640 -6380 0 -6380 0 0 5640 0 5640 6380 0 6380 0 0
-5640z"/>
<path d="M5133 8151 l2 -933 70 -28 c39 -16 73 -25 77 -22 6 7 12 1678 5 1718
-3 21 -56 91 -124 164 l-33 35 3 -934z"/>
<path d="M4553 8363 c-17 -54 -36 -123 -42 -153 -24 -114 -37 -211 -30 -216
14 -8 87 35 94 55 5 18 17 411 12 411 -2 0 -17 -44 -34 -97z"/>
<path d="M4539 7855 c-31 -17 -43 -40 -30 -62 7 -14 11 -13 30 6 11 11 23 21
26 21 3 0 12 0 20 0 19 0 14 44 -6 47 -8 1 -26 -4 -40 -12z"/>
<path d="M4528 7629 c-11 -6 -18 -22 -18 -42 0 -18 4 -27 8 -22 4 6 20 19 35
28 23 15 26 21 16 33 -13 16 -18 17 -41 3z"/>
<path d="M4586 7471 c-3 -5 -21 -16 -41 -25 -19 -9 -35 -23 -35 -31 0 -21 23
-18 48 5 12 11 26 20 31 20 5 0 13 4 16 10 4 6 -1 7 -12 4 -16 -5 -16 -4 1 10
11 9 15 16 9 16 -7 0 -14 -4 -17 -9z"/>
<path d="M7105 7384 c-10 -26 -13 -49 -9 -54 5 -5 45 -27 89 -50 44 -23 105
-58 136 -76 31 -19 60 -34 65 -34 4 0 15 -6 23 -13 9 -8 33 -24 53 -36 30 -18
37 -19 32 -7 -3 9 -14 16 -23 16 -13 1 -13 3 4 18 27 23 25 42 -6 61 -15 9
-78 50 -140 92 -63 42 -135 88 -160 102 l-47 26 -17 -45z"/>
<path d="M4518 7254 c-21 -11 -28 -22 -28 -44 0 -32 13 -38 35 -17 34 32 57
47 73 47 9 1 2 7 -17 15 -18 8 -34 15 -35 15 0 -1 -13 -8 -28 -16z"/>
<path d="M4546 7035 c-8 -8 -19 -15 -24 -15 -5 0 -21 -9 -36 -21 l-26 -20 0
-152 0 -152 60 62 c33 34 66 64 73 66 6 3 4 6 -7 6 -13 1 -16 5 -10 19 4 9 8
63 8 119 1 106 -5 120 -38 88z"/>
<path d="M5240 6908 c-2 -198 1 -2542 4 -2545 2 -2 54 0 117 3 87 6 108 10 91
17 l-22 10 0 1139 c0 1000 2 1141 15 1154 23 23 19 81 -6 94 -20 11 -20 11 3
32 16 15 18 19 6 15 -10 -4 -18 -2 -18 3 0 4 -33 24 -72 43 -96 45 -118 52
-118 35z"/>
<path d="M6214 6608 l-64 -61 0 -1089 c0 -939 2 -1089 14 -1094 8 -3 39 -2 68
3 l53 8 2 1075 c1 591 5 1096 8 1123 5 31 3 52 -5 62 -6 8 -9 19 -5 25 15 25
-12 5 -71 -52z"/>
</g>
</svg>
