<?xml version="1.0" standalone="no"?>
<!DOCTYPE svg PUBLIC "-//W3C//DTD SVG 20010904//EN"
 "http://www.w3.org/TR/2001/REC-SVG-20010904/DTD/svg10.dtd">
<svg version="1.0" xmlns="http://www.w3.org/2000/svg"
 width="1134.000000pt" height="1134.000000pt" viewBox="0 0 1134.000000 1134.000000"
 preserveAspectRatio="xMidYMid meet">

<g transform="translate(0.000000,1134.000000) scale(0.100000,-0.100000)"
fill="#000000" stroke="none">
<path d="M0 11320 c0 -7 1897 -10 5670 -10 3773 0 5670 3 5670 10 0 7 -1897
10 -5670 10 -3773 0 -5670 -3 -5670 -10z"/>
<path d="M4413 8151 l2 -933 45 -18 c25 -9 57 -22 72 -28 24 -10 26 -9 21 6
-6 15 -5 15 10 3 22 -18 22 -3 0 22 -10 11 -12 17 -5 13 10 -6 12 144 10 782
-2 435 0 788 5 785 4 -2 7 3 7 11 0 9 -3 16 -7 16 -5 0 -9 15 -10 33 -1 17 -3
41 -5 52 -3 21 -54 89 -115 155 l-33 35 3 -934z"/>
<path d="M3836 8374 c-40 -110 -93 -384 -76 -384 5 0 30 10 55 22 48 24 62 49
51 93 -4 14 -2 34 3 44 6 11 7 30 2 49 -5 17 -5 64 0 107 5 45 5 85 0 94 -6 9
-5 23 0 33 6 11 6 18 1 18 -5 0 -22 -34 -36 -76z"/>
<path d="M3830 7862 c-30 -17 -60 -65 -47 -78 3 -3 22 4 43 15 21 12 34 21 29
22 -6 0 -1 4 10 9 16 7 17 9 3 9 -9 1 -19 5 -22 10 -4 5 3 7 14 4 16 -4 19 -2
14 11 -7 19 -2 20 -44 -2z"/>
<path d="M3813 7633 c-24 -12 -31 -22 -28 -37 2 -12 4 -24 4 -28 1 -10 80 44
81 55 0 4 -8 7 -17 8 -12 1 -10 4 7 9 20 6 21 8 5 8 -11 1 -34 -6 -52 -15z"/>
<path d="M3833 7452 c-40 -25 -59 -49 -48 -60 9 -9 82 46 88 67 3 12 4 21 4
20 -1 0 -21 -12 -44 -27z"/>
<path d="M6386 7390 c-9 -22 -16 -44 -16 -49 0 -14 310 -185 343 -190 4 0 19
-12 33 -26 14 -14 30 -25 37 -24 9 0 9 2 0 6 -7 2 -13 13 -13 23 0 10 -8 21
-17 23 -13 3 -12 5 5 6 17 1 22 6 20 19 -2 10 -11 16 -21 14 -10 -2 -16 1 -15
7 4 11 -55 54 -193 142 -158 99 -144 95 -163 49z"/>
<path d="M3810 7261 c-27 -14 -36 -26 -38 -50 -2 -17 1 -31 6 -31 18 0 102 71
102 87 0 12 -3 13 -14 4 -9 -8 -15 -8 -18 -1 -2 6 -17 3 -38 -9z"/>
<path d="M3814 7030 c-29 -17 -57 -37 -63 -44 -8 -9 -11 -62 -9 -160 l3 -147
60 62 c33 34 53 58 45 54 -11 -6 -10 -3 3 12 9 11 14 23 10 28 -5 4 0 5 10 2
15 -6 16 -4 3 16 -9 15 -13 52 -12 115 1 50 1 92 1 92 0 0 -23 -14 -51 -30z"/>
<path d="M4520 6908 c0 -7 0 -582 0 -1278 l0 -1265 97 3 c54 2 100 6 103 8 3
3 5 530 5 1170 0 640 3 1164 7 1164 4 0 6 17 4 38 -6 57 -7 58 -16 37 -8 -19
-9 -19 -9 3 -1 12 4 22 9 22 30 0 0 24 -72 58 -106 50 -128 57 -128 40z"/>
<path d="M5570 6671 c0 -6 -6 -11 -13 -11 -7 0 -38 -26 -70 -58 l-57 -58 0
-1086 c0 -631 4 -1089 9 -1092 11 -7 130 5 129 13 0 3 0 8 1 11 6 24 4 2230
-2 2230 -4 0 0 11 8 24 11 16 13 26 6 31 -6 3 -11 1 -11 -4z"/>
<path d="M0 20 c0 -7 1897 -10 5670 -10 3773 0 5670 3 5670 10 0 7 -1897 10
-5670 10 -3773 0 -5670 -3 -5670 -10z"/>
</g>
</svg>
